# xmcd
#
# Track frame offsets:
#	150
#	7544
#	27480
#	44873
#	60676
#	81098
#	99927
#	121311
# Disc length: 1843 seconds
# Revision: 1
# Processed by: cddbd v1.5.2PL0 Copyright (c) Steve Scherf et al.
#
# Submitted via: libkcddb 0.31
#
DISCID=5b073108
DTITLE=Mattress - Live On The Radio
DYEAR=2007
DGENRE=Electronic
TTITLE0=Mattress - Trying
TTITLE1=Mattress - My Reason
TTITLE2=Mattress - How Many Tears?
TTITLE3=Mattress - Bad Times
TTITLE4=Mattress - Forbidden Fruit
TTITLE5=Mattress - Have You Heard?
TTITLE6=Mattress - El Dorado
TTITLE7=Mattress - Looking For My People
EXTD=
EXTT0=
EXTT1=
EXTT2=
EXTT3=
EXTT4=
EXTT5=
EXTT6=
EXTT7=
PLAYORDER=
